<svg width="17" height="16" viewBox="0 0 17 16" fill="none" xmlns="http://www.w3.org/2000/svg">
<path d="M9.16667 13.3334V12.0001C9.16667 10.1591 7.67428 8.66675 5.83333 8.66675C3.99238 8.66675 2.5 10.1591 2.5 12.0001V13.3334H9.16667ZM9.16667 13.3334H14.5V12.6667C14.5 10.7031 13.0076 9.33341 11.1667 9.33341C10.2245 9.33341 9.37354 9.75041 8.76729 10.4208M7.83333 4.66675C7.83333 5.77132 6.9379 6.66675 5.83333 6.66675C4.72876 6.66675 3.83333 5.77132 3.83333 4.66675C3.83333 3.56218 4.72876 2.66675 5.83333 2.66675C6.9379 2.66675 7.83333 3.56218 7.83333 4.66675ZM12.5 6.00008C12.5 6.73646 11.903 7.33341 11.1667 7.33341C10.4303 7.33341 9.83333 6.73646 9.83333 6.00008C9.83333 5.2637 10.4303 4.66675 11.1667 4.66675C11.903 4.66675 12.5 5.2637 12.5 6.00008Z" stroke="#1FA2D4" stroke-width="1.25" stroke-linecap="round" stroke-linejoin="round"/>
</svg>
